# xmcd
#
# Track frame offsets:
#	150
#	21807
#	40167
#	61827
#	82475
#	107367
#	126311
#	147468
#	168613
#	193446
#	211675
#	235671
#	254352
#	271847
#	290683
#	311385
#
# Disc length: 4390 seconds
#
# Revision: 0
# Processed by: cddbd v1.5.2PL0 Copyright (c) Steve Scherf et al.
# Submitted via: EasyCDDAExtractor 16.0.6.1
#
DISCID=ed112410
DTITLE=Celine Dion - All the way-A decade of song
DYEAR=1999
DGENRE=Ξένη
TTITLE0=The power of love
TTITLE1=Beauty and the beast
TTITLE2=Think twice
TTITLE3=Because you loved me
TTITLE4=It's all coming back to me now
TTITLE5=Immortality
TTITLE6=To love you more
TTITLE7=My heart will go on [love theme from ''Titanic'']
TTITLE8=I'm your angel
TTITLE9=That's the way it is
TTITLE10=If walls could talk
TTITLE11=The first time ever i saw your face
TTITLE12=All the way
TTITLE13=Then you look at me
TTITLE14=I want you to need me
TTITLE15=Live
EXTD=
EXTT0=
EXTT1=
EXTT2=
EXTT3=
EXTT4=
EXTT5=
EXTT6=
EXTT7=
EXTT8=
EXTT9=
EXTT10=
EXTT11=
EXTT12=
EXTT13=
EXTT14=
EXTT15=
PLAYORDER=
